PathFileType	4	(X/Y/Z)	pose_F01_0-88.trc
DataRate	CameraRate	NumFrames	NumMarkers	Units	OrigDataRate	OrigDataStartFrame	OrigNumFrames
30	30	6	21	m	30	66	88
Frame#	Time	CHip			RHip			RKnee			RAnkle			RBigToe			RSmallToe			RHeel			LHip			LKnee			LAnkle			LBigToe			LSmallToe			LHeel			Neck			Nose			RShoulder			RElbow			RWrist			LShoulder			LElbow			LWrist			
		X1	Y1	Z1	X2	Y2	Z2	X3	Y3	Z3	X4	Y4	Z4	X5	Y5	Z5	X6	Y6	Z6	X7	Y7	Z7	X8	Y8	Z8	X9	Y9	Z9	X10	Y10	Z10	X11	Y11	Z11	X12	Y12	Z12	X13	Y13	Z13	X14	Y14	Z14	X15	Y15	Z15	X16	Y16	Z16	X17	Y17	Z17	X18	Y18	Z18	X19	Y19	Z19	X20	Y20	Z20	X21	Y21	Z21	
66	2.2	-0.1763172988471682	1.851117510471581	-0.5749259026711662	-0.18612641876107835	1.8469218414135307	-0.5118697431407909	-0.1760824130155794	1.724786625124968	-0.5199686444469132	-0.15655412627982943	1.6045829353915833	-0.5311931143073797	-0.1960358216354961	1.5584861234153191	-0.4814926801579783	-0.18753329514303663	1.5609518397271707	-0.4634130136956353	-0.15613579329180335	1.589750867739408	-0.5420320269283121	-0.16356069093123982	1.854388236584191	-0.6398103491618357	-0.2102710478716631	1.7489134610883121	-0.5733063112220451	-0.18649900132339226	1.628117845381217	-0.5836811269619706	-0.22540394510995918	1.5896173431696883	-0.5466742517182288	-0.21822073624038318	1.5942340351330624	-0.5720255331793774	-0.1735337823744094	1.6220829969705677	-0.5876770300564433	-0.16657553596111066	1.9920273058996836	-0.6039134830968983	-0.18686610082791202	2.053423440230331	-0.5939372983119877	-0.18627116685511483	1.9866927100833938	-0.5101417098190585	-0.19718303324830266	1.9121501344869456	-0.45590645047873735	-0.22706470700425302	1.935598091919854	-0.46249604174376896	-0.14212570742736158	1.996268785777126	-0.6992927741198959	-0.11234611634380069	1.9298092804781415	-0.7322981740369108	-0.1286929848580175	1.8784505646814271	-0.7256405307386832
67	2.2333333333333334	-0.17802458291892398	1.8472255396838644	-0.5688699091740266	-0.18824458718199938	1.8454260799496236	-0.5093814528477874	-0.17874165921608257	1.7173817609297906	-0.5160578794099282	-0.16450413292880006	1.6002155669800973	-0.5217361434239406	-0.19701230795664088	1.560696002931326	-0.48093125324848657	-0.19012794884719877	1.5632317990563607	-0.46144964998425636	-0.16039951217623732	1.5906293916876273	-0.5375799642243907	-0.16245859936761423	1.850394280882023	-0.6328200209326674	-0.20425802292506787	1.742365375389147	-0.5748088728979741	-0.18197324647493968	1.627952959071095	-0.5836941259907535	-0.2219669619877894	1.590981278296145	-0.5416502227231988	-0.2164679822000574	1.5971341700540596	-0.5740162306710499	-0.16835807294833308	1.6212510818388852	-0.5882039993266766	-0.16575965825226052	1.9919307920209521	-0.6007991119146376	-0.18687644465588096	2.053390260721743	-0.5938860581833347	-0.1853888322625948	1.986670984181533	-0.5069974119125937	-0.19605539339448208	1.910920963974295	-0.46105514169072004	-0.2212898253971479	1.9378558811304065	-0.4611826541361993	-0.1421162730550057	1.9961947350116993	-0.6991194203802709	-0.11243741931570025	1.9297873621281565	-0.7321346281386705	-0.13545968601370564	1.8795567565934113	-0.7187185965080543
68	2.2666666666666666	-0.179598127135091	1.8447987191071014	-0.5714980033583005	-0.19002385411582276	1.8416891828478308	-0.5119728671785989	-0.18204434962453148	1.7189057813812292	-0.5126620832284381	-0.16755073340237445	1.6023933619319075	-0.5185922201470154	-0.19619586758366914	1.5645021793995797	-0.48714699446139004	-0.19112655586074015	1.5728658990917923	-0.4668301994881848	-0.16466323106067132	1.5915079156358463	-0.5331279015204693	-0.16813129874315685	1.8476062953435484	-0.6310006195280934	-0.19315519968619374	1.7339335644469798	-0.589882172080444	-0.1684974054678681	1.6173149243164284	-0.6052058038925002	-0.19317102455831037	1.5772277986656205	-0.5743374144652005	-0.1833205716916931	1.581151298101444	-0.6066865260156721	-0.15755192838951962	1.6089123609468887	-0.6026373591195561	-0.16664386374900825	1.9920268918222968	-0.6037862841464505	-0.18686428105610797	2.053396720552541	-0.5939238690381036	-0.186345801094365	1.9880729898501495	-0.5105238013351362	-0.19220126514212646	1.909860491123363	-0.4655276622171162	-0.2188539763827026	1.9239488628155192	-0.46676991923767946	-0.14423546823812078	1.9961269893763023	-0.6969311993441041	-0.11560782466958595	1.9284907843417782	-0.7329947645411233	-0.13886597641327136	1.878114776593976	-0.7194024363285403
69	2.3	-0.17907644881383425	1.8445741239016369	-0.5715999484891167	-0.18944421346162918	1.8416239232984857	-0.5120456645775231	-0.18398634855410506	1.714604465139859	-0.5100311373457995	-0.16971909856002995	1.5968361837267369	-0.5156472272242899	-0.19645654259447162	1.5648053395556196	-0.4875177325317764	-0.19360672730091874	1.5723969957457833	-0.4644457233218072	-0.16676539296880424	1.5882895103379513	-0.5305930768320046	-0.16861626055741769	1.8451461082604312	-0.6338076263673107	-0.18111197974949902	1.720595277946566	-0.6054045597082112	-0.1692308262435022	1.59297537028566	-0.6108792187049185	-0.19484537754934517	1.5565929750283132	-0.5840573262689241	-0.1872886592781313	1.558521973114702	-0.6132691529248321	-0.1585542981747404	1.5832491601746375	-0.6075890715722729	-0.16460575829634358	1.9896277945604486	-0.6056824536562302	-0.1848492791910501	2.0534314952298485	-0.59619281905748	-0.18433706304556696	1.9856687159743835	-0.5123059636227275	-0.18509895346999086	1.908423937095437	-0.46870170613161166	-0.21553378487779068	1.9062010136874197	-0.4682569952410921	-0.14224102756722623	1.9949707192904516	-0.6992989058526435	-0.1203250292467558	1.9276351172793966	-0.7398668076245623	-0.1487744719725968	1.880440062692533	-0.7165400169812985
70	2.3333333333333335	-0.1768474988026594	1.8432630034641901	-0.5738022688063471	-0.18727752628365368	1.8429269129724206	-0.5145478312094549	-0.19477314328327108	1.7129106419881064	-0.5021975764059542	-0.17500903279807284	1.6000124264252433	-0.5104945412981636	-0.19545617259690665	1.5655055433367986	-0.4838146701355659	-0.19231819260580252	1.5737280913836114	-0.4612212668071166	-0.16848529125250158	1.5910007621751419	-0.5253513832892146	-0.16629342116288337	1.8438019580877012	-0.636012518107939	-0.1737828807380197	1.7168570174650735	-0.6127359626312986	-0.1669245272567523	1.590165254668782	-0.6046626236225626	-0.19773176585252777	1.556532533739054	-0.5771356618492969	-0.18835368476742237	1.5570496988622162	-0.6078652889312025	-0.15603165273426348	1.5793086042513547	-0.6015382662615578	-0.1632765588760022	1.9909018783804622	-0.6113468088242863	-0.1856145988243868	2.053579330063153	-0.5993863976769923	-0.18125180887942458	1.9858253449155092	-0.5202525334403312	-0.17829049846870024	1.9157276726966352	-0.47376398480444515	-0.21000224403837883	1.8871684485418392	-0.47096442922652704	-0.1436529094855001	1.9951233585433945	-0.7051952461683777	-0.12412350343221297	1.9264076915825408	-0.7433971385893688	-0.16526834523457345	1.8824154127371424	-0.7035163142886203
71	2.3666666666666667	-0.17324574997876407	1.8386059362213083	-0.589712123099136	-0.1850833559272895	1.8379601434739674	-0.5250868903904226	-0.21340342471035323	1.7229898956130227	-0.4874861182516186	-0.17933474963565915	1.6129143650379154	-0.5036690731902643	-0.19894889495090817	1.5730109691701377	-0.4814951623424576	-0.1977377402452544	1.5778530999606981	-0.45619881662743356	-0.17461142209928476	1.6084451736323098	-0.5174854677909014	-0.16035677248717858	1.8391436533768981	-0.6541188478369006	-0.16704212184510198	1.7160880008388417	-0.6281993549671205	-0.16690283040809137	1.587431730705852	-0.6042599332506292	-0.200638374349032	1.5578591764463354	-0.5787061382420035	-0.19127593178196273	1.5583334441934775	-0.6095231402499969	-0.15305641548156976	1.576777506068747	-0.6000949403922632	-0.1629238485647506	1.9912345146020052	-0.6199515189329189	-0.18433641984635352	2.0549298874915256	-0.6046192593229638	-0.180924915267003	1.9871980764357422	-0.5289175673421688	-0.16548265259796896	1.9145166835636969	-0.4928256344328378	-0.19791617465842531	1.8714081515099679	-0.4812431085610078	-0.1460145767645982	1.9954437417050033	-0.7144281525091385	-0.1324899520797901	1.9223362391820518	-0.7421164709233504	-0.18558474334450623	1.8938663246004666	-0.6696859385937417
